<?xml version="1.0" encoding="UTF-8"?>
<svg width="119px" height="21px" viewBox="0 0 119 21" version="1.1" xmlns="http://www.w3.org/2000/svg" xmlns:xlink="http://www.w3.org/1999/xlink">
    <!-- Generator: sketchtool 52.6 (67491) - http://www.bohemiancoding.com/sketch -->
    <title>F5056172-A827-4D04-BA49-8843D228D8DA</title>
    <desc>Created with sketchtool.</desc>
    <defs>
        <polygon id="path-1" points="6.38600486e-05 0.0282409188 20.9712095 0.0282409188 20.9712095 20.6565012 6.38600486e-05 20.6565012"></polygon>
        <polygon id="path-3" points="0.108113508 0.0291338793 0.266038474 0.0291338793 0.266038474 0.296662615 0.108113508 0.296662615"></polygon>
    </defs>
    <g id="Fliply" stroke="none" stroke-width="1" fill="none" fill-rule="evenodd">
        <g id="Home" transform="translate(-128.000000, -43.000000)">
            <g id="Group-2" transform="translate(128.000000, 43.000000)">
                <g id="Group-12">
                    <g id="Group-3" transform="translate(0.000000, 0.129458)">
                        <mask id="mask-2" fill="white">
                            <use xlink:href="#path-1"></use>
                        </mask>
                        <g id="Clip-2"></g>
                        <path d="M17.4316672,6.37404437 C18.266858,5.35982593 19.9115908,5.63403704 20.3591634,6.86286234 C20.7554382,7.95087652 20.9715298,9.12340891 20.9712092,10.3423002 C20.9718504,13.1869054 19.7958504,15.7725947 17.9000794,17.6356219 C16.0060718,19.5002259 13.377545,20.65699 10.4856366,20.656517 C7.59372824,20.65699 4.96504122,19.5002259 3.07119389,17.6356219 C1.1754229,15.7725947 -0.000577099237,13.1869054 6.41221374e-05,10.3423002 C-0.000577099237,7.49769496 1.1754229,4.91216329 3.07119389,3.0491361 C4.96504122,1.18453208 7.59372824,0.0277680142 10.4856366,0.0282410638 C11.787316,0.0282410638 13.0383389,0.262558322 14.1910947,0.6911413 C14.7659496,0.904802057 15.3162779,1.16718693 15.8372702,1.47214626 C16.0501557,1.59687369 16.0996901,1.88086116 15.9506061,2.07544225 L15.4073313,2.7832822 C15.1367359,3.13601955 14.6619115,3.2708387 14.2417511,3.11410158 L13.383316,2.79400466 C12.4832015,2.45955856 11.5088656,2.27648835 10.4856366,2.27633066 C8.21747634,2.27696139 6.17470534,3.17749024 4.68723206,4.63874059 C3.20136183,6.10204083 2.28601832,8.11155572 2.2853771,10.3423002 C2.28601832,12.5732023 3.20136183,14.5828749 4.68723206,16.0460174 C5.24846107,16.5972779 5.9605374,17.2016777 6.79396489,17.5949396 C7.39286565,17.8778233 8.11456031,17.6867113 8.53279695,17.1788136 L17.4316672,6.37404437 Z" id="Fill-1" fill="#FFFFFF" mask="url(#mask-2)"></path>
                    </g>
                    <path d="M9.52348397,12.4278657 L9.52091908,12.4267619 L9.52348397,12.4278657 Z" id="Fill-4" fill="#6E0226"></path>
                    <path d="M10.650158,12.4258631 L10.6496771,12.4260208 L10.650158,12.4258631 Z" id="Fill-6" fill="#6E0226"></path>
                    <path d="M17.5489305,3.28685931 C17.5125412,3.18468059 17.4578771,3.08581322 17.3850985,2.99987586 C17.3123198,2.91393851 17.2227092,2.84235033 17.1254038,2.7890534 L17.1082511,2.77975009 L17.0904573,2.77186593 C16.9822511,2.72440329 16.8604191,2.69728177 16.738587,2.69759714 C16.631984,2.69743946 16.526984,2.71778059 16.4308008,2.75262858 C16.3286863,2.78952645 16.2302588,2.84487326 16.1459382,2.91646144 C16.0750832,2.97653875 12.0286557,7.96942007 10.7200832,9.58488461 C10.5171366,9.83560092 10.1280756,9.82440541 9.93811374,9.56391274 L6.75717481,5.20144891 L6.7509229,5.1902534 C6.69818244,5.09753567 6.62877023,5.01112527 6.54444962,4.93969478 C6.46028931,4.86826428 6.36234275,4.81307515 6.26022824,4.7760196 L6.25926641,4.77570423 C6.16340382,4.74101392 6.05840382,4.72051511 5.95180076,4.72067279 C5.8299687,4.72035742 5.70829695,4.7477943 5.60041145,4.79494158 L5.58261756,4.80282574 L5.56562519,4.81212905 C5.46848015,4.8652683 5.37838855,4.93669879 5.30560992,5.02279383 C5.2328313,5.10873118 5.17784656,5.20775624 5.14161756,5.31025033 C5.10731221,5.40580636 5.08727405,5.5087735 5.08727405,5.61379052 C5.08695344,5.7342605 5.11452595,5.85536121 5.16357939,5.96321652 L5.16598397,5.96842007 C5.16598397,5.96842007 9.23934275,12.0546768 9.44020534,12.2210326 C9.53686947,12.300978 9.63770153,12.377139 9.75215954,12.4261785 L9.75344198,12.4268092 C9.93426641,12.5037586 10.1224649,12.5510636 10.316755,12.5512213 C10.511045,12.5510636 10.6992435,12.5037586 10.8802282,12.4268092 L10.8821519,12.4260208 C11.1463351,12.2960898 11.4146863,11.920173 11.4146863,11.920173 L17.5248847,3.94502905 L17.5274496,3.93919478 C17.5763427,3.83165482 17.6035947,3.7107118 17.603274,3.59071487 C17.603274,3.48538248 17.5832359,3.38225766 17.5489305,3.28685931" id="Fill-8" fill="#FF8600"></path>
                    <path d="M4.90875802,5.31070761 C4.90891832,5.31054993 4.90891832,5.31054993 4.90907863,5.31023456 C4.90907863,5.31007688 4.90907863,5.3099192 4.90923893,5.30976151 L4.90875802,5.31070761 Z" id="Fill-10" fill="#6E0226"></path>
                </g>
                <g id="Group-41" transform="translate(6.000000, 4.000000)">
                    <path d="M47.0272874,1.05535871 L47.0272874,12.9449653 C47.0272874,13.2147123 46.9196518,13.4504372 46.7036895,13.652626 C46.4880728,13.8548148 46.2361744,13.9557471 45.9492037,13.9557471 C45.6615419,13.9557471 45.4101618,13.8548148 45.1945451,13.652626 C44.9789283,13.4504372 44.8709472,13.2147123 44.8709472,12.9449653 L44.8709472,1.05535871 C44.8709472,0.786097707 44.9789283,0.549886795 45.1945451,0.34769803 C45.4101618,0.145509266 45.6615419,0.0442528736 45.9492037,0.0442528736 C46.2361744,0.0442528736 46.4880728,0.145509266 46.7036895,0.34769803 C46.9196518,0.549886795 47.0272874,0.786097707 47.0272874,1.05535871" id="Fill-1" fill="#FF8600"></path>
                    <path d="M59.3318451,1.99652601 L55.3585072,1.99652601 C54.573968,1.99652601 53.9378909,2.62474078 53.9378909,3.39978344 L53.9378909,6.16262475 C53.9378909,6.37805923 54.1145606,6.55259049 54.3324699,6.55259049 L59.3318451,6.55259049 C60.0452875,6.55259049 60.6289081,6.33568936 61.0817172,5.90156118 C61.5348562,5.4682478 61.7613432,4.92542461 61.7613432,4.27455825 C61.7613432,3.6236919 61.5348562,3.08152055 61.0817172,2.64739237 C60.6289081,2.21375307 60.0452875,1.99652601 59.3318451,1.99652601 M52.9083894,0.0442528736 L59.3318451,0.0442528736 C59.9083725,0.0442528736 60.5465941,0.180162373 61.24651,0.450840644 C61.8782982,0.695771072 62.4312367,1.11702533 62.90681,1.71492935 C63.4844921,2.44140963 63.8201812,3.35073217 63.8201812,4.27455825 C63.8201812,5.30561269 63.4765741,6.20678719 62.7908446,6.97954839 C62.1042904,7.75247256 61.2395817,8.23418536 60.1967187,8.42370904 L63.9437345,12.3287442 C64.1354155,12.5185938 64.2454423,12.7558651 64.2729902,13.0407209 C64.3000433,13.3254139 64.2177294,13.5491594 64.0260485,13.7117945 C63.8337077,13.90197 63.5659812,13.9764432 63.223199,13.93554 C62.8795919,13.8947997 62.6118655,13.7667123 62.4203495,13.5491594 L58.1471184,9.1130342 C57.7731591,8.72469806 57.2542019,8.50486363 56.7116558,8.50486363 L55.0071472,8.50486363 C54.4165983,8.50486363 53.9378909,8.9779395 53.9378909,9.56133999 L53.9378909,12.9794476 C53.9378909,13.2511036 53.8349572,13.4818565 53.6290899,13.6712172 C53.4232226,13.8613927 53.1823843,13.9557471 52.9083894,13.9557471 C52.6337347,13.9557471 52.3935562,13.8542224 52.1876889,13.650847 C51.9818216,13.4474717 51.8790529,13.2103634 51.8790529,12.9388703 L51.8790529,1.06096674 C51.8790529,0.790288469 51.9818216,0.552528326 52.1876889,0.349152961 C52.3935562,0.145777595 52.6337347,0.0442528736 52.9083894,0.0442528736" id="Fill-3" fill="#FF8600"></path>
                    <path d="M73.5192839,12.9390333 L73.5192839,2.78248706 C73.5192839,2.34852184 73.1729094,1.99668897 72.7455165,1.99668897 L68.5134597,1.99668897 C68.2463391,1.99668897 68.0129094,1.90184566 67.8126892,1.71199606 C67.6124691,1.52247238 67.5125195,1.29171956 67.5125195,1.02038944 C67.5125195,0.749711173 67.6124691,0.518958354 67.8126892,0.328782832 C68.0129094,0.139422115 68.2463391,0.0442528736 68.5134597,0.0442528736 L80.5276302,0.0442528736 C80.7941091,0.0442528736 81.0280201,0.139422115 81.2285611,0.328782832 C81.4287812,0.518958354 81.5287309,0.749711173 81.5287309,1.02038944 C81.5287309,1.29171956 81.4287812,1.52247238 81.2285611,1.71199606 C81.0280201,1.90184566 80.7941091,1.99668897 80.5276302,1.99668897 L76.6066526,1.99668897 C76.0074361,1.99668897 75.5214852,2.49013497 75.5214852,3.09879442 L75.5214852,12.9390333 C75.5214852,13.2103634 75.4215355,13.4474717 75.2213154,13.650847 C75.0210953,13.8542224 74.7870238,13.9557471 74.5205449,13.9557471 C74.2532639,13.9557471 74.0198342,13.8542224 73.8196141,13.650847 C73.6193939,13.4474717 73.5192839,13.2103634 73.5192839,12.9390333" id="Fill-5" fill="#FF8600"></path>
                    <path d="M85.3023262,6.94001382 L85.3023262,1.04675287 C85.3023262,0.779826405 85.4022759,0.545663477 85.602496,0.345067114 C85.8027161,0.144631358 86.0361459,0.0442528736 86.3032665,0.0442528736 C86.5700662,0.0442528736 86.8039772,0.144631358 87.0041974,0.345067114 C87.2044175,0.545663477 87.3045276,0.779826405 87.3045276,1.04675287 L87.3045276,6.94001382 C87.3045276,7.58131188 87.4710568,8.28990367 87.8050779,9.06466496 C88.1387781,9.84022928 88.7261226,10.5149333 89.5672717,11.0890982 C90.4082605,11.6643874 91.3222461,11.9510683 92.3105122,11.9510683 C92.9512808,11.9510683 93.6581477,11.7845204 94.4330381,11.449979 C95.2068055,11.11608 95.8807837,10.5279424 96.4554539,9.68620854 C97.0290012,8.8439929 97.3161759,7.92902295 97.3161759,6.94001382 L97.3161759,1.04675287 C97.3161759,0.779826405 97.4164464,0.545663477 97.6166665,0.345067114 C97.8168867,0.144631358 98.0503164,0.0442528736 98.317437,0.0442528736 C98.5839159,0.0442528736 98.8178269,0.144631358 99.018047,0.345067114 C99.2182672,0.545663477 99.3185377,0.779826405 99.3185377,1.04675287 L99.3185377,6.94001382 C99.3185377,8.8640686 98.6309227,10.5149333 97.256174,11.8910019 C95.8807837,13.2677128 94.232818,13.9557471 92.3105122,13.9557471 C90.3882064,13.9557471 88.7394385,13.2677128 87.3645294,11.8910019 C85.9891391,10.5149333 85.3023262,8.8640686 85.3023262,6.94001382" id="Fill-7" fill="#FF8600"></path>
                    <path d="M32.4732889,13.4212571 L32.470693,13.4201222 L32.4732889,13.4212571 Z" id="Fill-9" fill="#6E0226"></path>
                    <path d="M33.0113194,13.4206086 L33.0108326,13.4207707 L33.0113194,13.4206086 Z" id="Fill-11" fill="#6E0226"></path>
                    <path d="M40.4997783,0.675026953 C40.4608418,0.565468507 40.4016916,0.45979971 40.3234873,0.367744685 C40.245283,0.275851728 40.1486875,0.19919323 40.0439733,0.142307114 L40.0257477,0.132258854 L40.0061967,0.12399335 C39.8898844,0.0731037761 39.7588259,0.0439314089 39.6277675,0.0442555463 C39.5131121,0.0440934776 39.4001135,0.065972753 39.2967248,0.103410624 C39.1867087,0.142955389 39.0810003,0.201948398 38.9902038,0.278768965 C38.8992417,0.355265395 38.8241854,0.448292832 38.7678519,0.547965087 L38.7613901,0.559147828 L32.9414677,10.511463 C32.7336962,10.8668796 32.2099595,10.8668796 32.002188,10.511463 L26.1824314,0.558661621 L26.1756382,0.546830606 C26.1191389,0.447644557 26.0444141,0.355103326 25.9536176,0.278768965 C25.8629868,0.202272535 25.7576098,0.143117457 25.6477593,0.103572693 L25.6467652,0.103248556 C25.5435422,0.065972753 25.4307093,0.0440934776 25.3158882,0.0442555463 C25.1848298,0.0439314089 25.0537714,0.0732658448 24.9377904,0.12399335 L24.9185708,0.132096785 L24.9005109,0.142145045 C24.7957967,0.198869093 24.6990354,0.275527591 24.6206655,0.367744685 C24.5421298,0.459475573 24.4831453,0.565468507 24.4440431,0.675189022 C24.4070949,0.777292307 24.3855556,0.887661096 24.3857213,0.99997471 C24.3852242,1.12881933 24.4148822,1.25863637 24.4677364,1.37386722 L24.4703874,1.37937755 L31.2900652,13.2791103 L31.2920534,13.2828379 C31.3518664,13.4006618 31.4310648,13.5098961 31.5284888,13.6024373 C31.6259128,13.6949786 31.7412309,13.7695302 31.8643364,13.8218784 L31.8658276,13.8225266 C32.0601785,13.9048576 32.2628137,13.9555851 32.4719107,13.9557471 C32.680842,13.9555851 32.8833116,13.9050196 33.0781595,13.8226887 L33.0803135,13.8217163 C33.2032532,13.769206 33.3179086,13.6948165 33.4151669,13.6024373 C33.5124252,13.5100582 33.5916236,13.4009859 33.6516023,13.2838103 L33.6534249,13.2804068 L40.4737654,1.37921548 L40.4765821,1.3728948 C40.5292706,1.25798809 40.5584315,1.12865726 40.5582658,1.00013678 C40.5584315,0.887499027 40.5367265,0.777130238 40.4997783,0.675026953" id="Fill-13" fill="#FF8600"></path>
                    <path d="M24.3855529,1.11501637 C24.3855529,1.11485423 24.3857151,1.11469209 24.3857151,1.11436782 C24.3857151,1.11420568 24.3858774,1.11404354 24.3858774,1.11371926 L24.3855529,1.11501637 Z" id="Fill-15" fill="#6E0226"></path>
                    <path d="M105.248149,11.8157604 C105.248149,11.8157604 105.248311,11.8155983 105.248473,11.8155983 L105.248798,11.815274 L105.248149,11.8157604 Z" id="Fill-17" fill="#6E0226"></path>
                    <path d="M104.709307,11.8171386 C104.709307,11.8169765 104.709469,11.8166522 104.709469,11.8164901 L104.709469,11.8138959 L104.709307,11.8171386 Z" id="Fill-19" fill="#6E0226"></path>
                    <g id="Group-23" transform="translate(111.717494, 10.210345)">
                        <mask id="mask-4" fill="white">
                            <use xlink:href="#path-3"></use>
                        </mask>
                        <g id="Clip-22"></g>
                        <path d="M0.24275,0.164904713 L0.243019542,0.160891782 C0.243019542,0.161426839 0.24275,0.161961897 0.24275,0.162496954 L0.24275,0.164904713 Z" id="Fill-21" fill="#6E0226" mask="url(#mask-4)"></path>
                    </g>
                    <path d="M112.073756,8.82571522 C111.913579,8.35989707 111.635047,7.92487278 111.256507,7.52357508 C111.051699,7.30736638 110.785895,7.09066888 110.452152,6.85702662 C110.11874,6.62387315 109.717389,6.37556715 109.245455,6.10852414 C108.787901,5.85011645 108.413494,5.62673881 108.125375,5.4409981 C107.838081,5.25623497 107.63443,5.10487258 107.533927,5.01232809 C107.285976,4.78536598 107.111914,4.57632621 107.007278,4.39889495 C106.897849,4.2134801 106.837183,4.04028504 106.813711,3.86920807 L106.813545,3.86855635 C106.792883,3.71768275 106.782965,3.58098411 106.782965,3.45911213 C106.782965,3.410233 106.784618,3.36363489 106.787593,3.31948074 L106.787758,3.31719971 L106.787758,3.31654799 C106.804123,3.05830323 106.863301,2.85252207 106.956366,2.68258562 C107.050091,2.51264916 107.178365,2.37301776 107.362014,2.25000528 C107.705179,2.02255437 108.118928,1.90198584 108.64971,1.90084533 C108.710375,1.90084533 108.772694,1.90263756 108.8365,1.9060591 C109.081807,1.92724006 109.327113,1.99697429 109.582503,2.12503762 C109.845497,2.25766301 110.055926,2.41212107 110.223045,2.58678251 L110.225029,2.58482735 C110.298753,2.67118048 110.388842,2.74808366 110.493312,2.79924382 C110.613817,2.8585505 110.743909,2.88673747 110.868546,2.89195124 L110.922599,2.89309175 C111.136664,2.89520985 111.360977,2.82710492 111.534709,2.6964347 L111.547106,2.68714767 L111.558843,2.67737184 C111.652569,2.59835057 111.731417,2.49586732 111.782495,2.38409704 C111.834234,2.27200089 111.85903,2.15371338 111.86465,2.03901035 L111.864815,2.03558881 L111.865972,1.98622088 C111.868286,1.77718112 111.797207,1.5582026 111.666123,1.38924372 L111.654883,1.37474291 L111.642485,1.36089382 C111.306759,0.986642584 110.905408,0.681799716 110.447854,0.452882437 C109.987656,0.222335853 109.493737,0.0903621903 108.981138,0.0605459183 L108.981138,0.0602200575 L108.977336,0.0602200575 C108.976344,0.060057127 108.975353,0.0598941966 108.974361,0.0598941966 L108.974361,0.060057127 C108.826251,0.0496295783 108.680951,0.0442528736 108.538627,0.0442528736 C108.056609,0.0442528736 107.607156,0.104537139 107.193903,0.231134097 C106.780816,0.357405194 106.404756,0.551129497 106.07746,0.809537187 C105.702888,1.10411544 105.40518,1.46891671 105.198223,1.88911433 C104.991267,2.30800852 104.873903,2.7793663 104.838032,3.29129377 L104.837867,3.29129377 C104.837702,3.29210842 104.837702,3.293086 104.837702,3.29390066 C104.837702,3.29471531 104.837537,3.29536703 104.837371,3.29618168 L104.837537,3.29618168 C104.82861,3.4097442 104.823817,3.52184035 104.823817,3.6323072 C104.823817,4.04272899 104.886962,4.43196983 105.019037,4.79237199 C105.185165,5.24711087 105.460887,5.6743145 105.8305,6.0734941 C106.035804,6.29442778 106.309542,6.51536147 106.661468,6.75894249 C107.013064,7.00170886 107.442351,7.26402688 107.953131,7.54980688 C108.447712,7.82678865 108.847244,8.06613347 109.146935,8.26409397 C109.445634,8.45993637 109.647632,8.62237802 109.725489,8.70726479 C109.948976,8.94449152 110.104359,9.17617862 110.203209,9.40134849 C110.275445,9.56655997 110.317432,9.76908252 110.317597,10.0204842 C110.317597,10.0732737 110.315614,10.1281812 110.311977,10.1852069 C110.290323,10.4994997 110.198746,10.8102081 110.025676,11.1298776 C109.876739,11.403112 109.628788,11.637406 109.22661,11.8366699 C108.89138,12.0012297 108.534991,12.0833466 108.134797,12.0839983 C108.068346,12.0839983 108.000407,12.0815544 107.931476,12.0769923 L107.923542,12.0763406 L107.915773,12.0760147 C107.625339,12.0655872 107.350113,11.9914538 107.070258,11.84335 L107.069927,11.8431871 C106.768914,11.6835153 106.532203,11.5072245 106.352025,11.3192028 L106.350041,11.3208321 C106.278301,11.2370859 106.191683,11.1614861 106.089527,11.1100001 C105.971667,11.0497158 105.842567,11.0202254 105.718922,11.0145229 L105.664868,11.0132194 C105.452457,11.0111013 105.230953,11.0809985 105.060032,11.2100394 C104.958372,11.2844986 104.867787,11.3853526 104.807452,11.5021737 C104.74629,11.618669 104.716371,11.7462435 104.710916,11.8681155 L104.709428,11.9215567 C104.707445,12.1314111 104.779185,12.3492491 104.909112,12.5167416 L104.920848,12.532057 L104.933576,12.546232 C105.284345,12.9354728 105.714459,13.2572605 106.213172,13.5096397 C106.715026,13.764463 107.244485,13.9106116 107.786507,13.9409166 L107.786507,13.9412425 C107.788656,13.9414054 107.790805,13.9414054 107.792954,13.9415684 C107.794111,13.9415684 107.795434,13.9418942 107.796756,13.9418942 L107.796756,13.9417313 C107.921062,13.9508554 108.044873,13.9559062 108.167857,13.9557433 C108.589375,13.9559062 109.002131,13.9013245 109.401333,13.7919982 C109.919552,13.6505746 110.390495,13.4232866 110.801599,13.1119265 C111.218819,12.7963302 111.555867,12.3920998 111.80415,11.9168317 C112.054911,11.4371644 112.200046,10.9024267 112.242528,10.3263046 C112.251785,10.2078542 112.256579,10.091196 112.256579,9.97584125 C112.256744,9.5704703 112.197236,9.18497686 112.073756,8.82571522" id="Fill-24" fill="#FF8600"></path>
                    <polygon id="Fill-26" fill="#6E0226" points="110.639811 2.7196213 110.639648 2.7196213 110.638837 2.71945916"></polygon>
                    <polygon id="Fill-28" fill="#6E0226" points="105.786423 11.2804598 105.786909 11.2804598 105.788694 11.2804598"></polygon>
                    <path d="M5.51903624,9.14079737 L5.51644026,9.1396624 L5.51903624,9.14079737 Z" id="Fill-33" fill="#6E0226"></path>
                    <path d="M6.59615173,9.14014882 L6.59566498,9.14031095 L6.59615173,9.14014882 Z" id="Fill-35" fill="#6E0226"></path>
                    <path d="M0.126644334,1.6499117 C0.126806583,1.64974956 0.126806583,1.64974956 0.126968832,1.64942529 C0.126968832,1.64926315 0.126968832,1.64910101 0.127131081,1.64893887 L0.126644334,1.6499117 Z" id="Fill-39" fill="#6E0226"></path>
                </g>
            </g>
        </g>
    </g>
</svg>